Coordinates
version=1
nRows=15
nColumns=63
inDegrees=yes

Units are S.I. units (second, meters, Newtons, ...)
If the header above contains a line with 'inDegrees', this indicates whether rotational values are in degrees (yes) or radians (no).

endheader
time	pelvis_tilt	pelvis_list	pelvis_rotation	pelvis_tx	pelvis_ty	pelvis_tz	hip_flexion_r	hip_adduction_r	hip_rotation_r	knee_angle_r	knee_angle_r_beta	ankle_angle_r	subtalar_angle_r	mtp_angle_r	hip_flexion_l	hip_adduction_l	hip_rotation_l	knee_angle_l	knee_angle_l_beta	ankle_angle_l	subtalar_angle_l	mtp_angle_l	L5_S1_Flex_Ext	L5_S1_Lat_Bending	L5_S1_axial_rotation	L4_L5_Flex_Ext	L4_L5_Lat_Bending	L4_L5_axial_rotation	L3_L4_Flex_Ext	L3_L4_Lat_Bending	L3_L4_axial_rotation	L2_L3_Flex_Ext	L2_L3_Lat_Bending	L2_L3_axial_rotation	L1_L2_Flex_Ext	L1_L2_Lat_Bending	L1_L2_axial_rotation	L1_T12_Flex_Ext	L1_T12_Lat_Bending	L1_T12_axial_rotation	Abs_r3	Abs_r2	Abs_r1	Abs_t1	Abs_t2	neck_flexion	neck_bending	neck_rotation	arm_flex_r	arm_add_r	arm_rot_r	elbow_flex_r	pro_sup_r	wrist_flex_r	wrist_dev_r	arm_flex_l	arm_add_l	arm_rot_l	elbow_flex_l	pro_sup_l	wrist_flex_l	wrist_dev_l
1.766667	2.489589	-3.073842	86.339064	0.198772	0.520887	0.947849	-2.180633	5.600850	4.113070	12.464836	0.217552	41.103937	5.227489	0.000000	-1.408603	0.447709	1.058119	16.372040	0.285746	41.202118	-11.393890	0.000000	0.226744	0.473517	0.454200	0.421087	0.629777	0.482587	0.372518	1.151308	0.482587	0.259146	1.151308	0.397425	0.210555	0.965595	0.369037	0.129562	0.733477	0.340650	1.619612	5.356516	2.526122	0.000000	0.000000	22.131778	-0.119285	-1.051078	-0.458833	-18.775896	25.264882	43.018267	85.670858	-1.421812	-4.282408	-7.412528	-20.830601	18.879799	67.615675	89.738118	14.002308	24.235939
1.783333	2.425530	-3.262818	85.815775	0.199587	0.521153	0.947088	-2.102568	5.487466	4.649317	12.237870	0.213591	41.158093	5.604812	0.000000	-1.141838	0.527758	0.823423	16.499731	0.287975	41.472379	-11.508253	0.000000	0.239576	0.440774	0.547356	0.444916	0.586229	0.581565	0.393599	1.071698	0.581565	0.273811	1.071698	0.478936	0.222470	0.898826	0.444726	0.136894	0.682759	0.410517	1.711266	4.986123	3.044227	0.000000	0.000000	22.887542	0.502582	-1.057162	-0.538826	-18.901189	23.937699	43.876154	83.927270	-0.967791	-3.966852	-7.987892	-20.979243	17.165772	69.278697	89.660104	13.826874	24.114606
1.800000	2.354519	-3.443761	85.285647	0.200430	0.521403	0.946369	-2.046980	5.357423	5.078639	11.974573	0.208996	41.235869	6.129063	0.000000	-0.869721	0.604111	0.575473	16.611888	0.289932	41.811068	-11.509992	0.000000	0.252386	0.407140	0.664072	0.468705	0.541496	0.705577	0.414644	0.989921	0.705577	0.288452	0.989921	0.581063	0.234365	0.830240	0.539559	0.144213	0.630660	0.498054	1.802765	4.605651	3.693369	0.000000	0.000000	23.618300	1.093760	-0.943041	-0.759606	-18.899463	22.030617	44.751977	82.027188	-0.372052	-3.196321	-8.491590	-21.020218	15.500384	70.655346	89.477334	13.358918	23.643578
1.816667	2.279886	-3.606598	84.763469	0.201234	0.521620	0.945653	-2.015634	5.211588	5.388344	11.701464	0.204229	41.350663	6.784273	0.000000	-0.608219	0.683189	0.375662	16.707855	0.291607	42.204364	-11.450642	0.000000	0.265342	0.373322	0.811245	0.492767	0.496518	0.861947	0.435931	0.907694	0.861947	0.303260	0.907694	0.709839	0.246397	0.761278	0.659136	0.151617	0.578275	0.608433	1.895313	4.223089	4.511899	0.000000	0.000000	24.321182	1.677418	-0.699489	-1.165478	-18.853315	19.666000	45.654833	79.689561	0.553378	-1.979349	-8.866203	-20.978361	13.945491	71.796694	89.210815	12.718536	23.176359
1.833333	2.219356	-3.744101	84.256900	0.202014	0.521843	0.944945	-2.024311	5.072366	5.572168	11.412216	0.199181	41.473052	7.546974	0.000000	-0.373018	0.738837	0.168947	16.790053	0.293042	42.643058	-11.274314	0.000000	0.278337	0.342437	0.981200	0.516900	0.455441	1.042525	0.457280	0.832601	1.042525	0.318111	0.832601	0.858550	0.258464	0.698297	0.797225	0.159042	0.530435	0.735900	1.988133	3.873714	5.457140	0.000000	0.000000	24.957334	2.179121	-0.246588	-1.708996	-18.737359	16.885148	46.534086	77.443042	1.565019	-0.485271	-9.095125	-20.911178	12.689540	72.655921	88.869966	11.832056	22.331204
1.850000	2.161427	-3.868899	83.831978	0.202696	0.522006	0.944215	-2.064769	4.938432	5.630233	11.107584	0.193864	41.595421	8.338213	0.000000	-0.156484	0.795944	0.113469	16.862808	0.294312	43.056616	-11.152191	0.000000	0.293125	0.311511	1.151945	0.544363	0.414310	1.223942	0.481575	0.757409	1.223942	0.335013	0.757409	1.007952	0.272196	0.635234	0.935955	0.167492	0.482531	0.863959	2.093764	3.523878	6.406773	0.000000	0.000000	25.587596	2.519727	0.222569	-2.323761	-18.562838	13.896831	47.313904	75.417088	2.546520	1.070561	-9.284241	-20.840341	11.547678	73.358659	88.562906	10.775154	21.290250
1.866667	2.124706	-3.982628	83.489266	0.203272	0.522108	0.943457	-2.133939	4.828736	5.540941	10.798226	0.188465	41.700189	9.150400	0.000000	0.032770	0.826695	0.092410	16.934415	0.295561	43.437580	-11.011943	0.000000	0.309955	0.283371	1.320176	0.575617	0.376883	1.402687	0.509225	0.688987	1.402687	0.354248	0.688987	1.155154	0.287824	0.577849	1.072643	0.177108	0.438941	0.990132	2.213978	3.205546	7.342424	0.000000	0.000000	26.199764	2.704030	0.751915	-2.978859	-18.362076	10.769985	47.980121	73.749676	3.486102	2.704678	-9.398320	-20.830259	10.723462	73.851732	88.280148	9.455722	19.786801
1.883333	2.107106	-4.083960	83.267524	0.203725	0.522147	0.942678	-2.228911	4.755335	5.371686	10.490805	0.183099	41.768546	9.855552	0.000000	0.194904	0.834392	0.143094	17.015936	0.296984	43.739384	-10.924109	0.000000	0.327632	0.255753	1.461102	0.608446	0.340152	1.552421	0.538267	0.621838	1.552421	0.374451	0.621838	1.278464	0.304239	0.521532	1.187146	0.187209	0.396162	1.095827	2.340245	2.893130	8.126212	0.000000	0.000000	26.774575	2.710325	1.209400	-3.513627	-18.182496	7.945825	48.402064	72.442094	4.225198	4.265064	-9.545635	-20.849242	9.928596	74.158658	88.040407	8.185750	17.977956
1.900000	2.127501	-4.178265	83.147892	0.204081	0.522123	0.941849	-2.336928	4.733569	5.108918	10.196818	0.177968	41.813619	10.501185	0.000000	0.322075	0.796243	0.199685	17.096484	0.298390	43.966490	-10.868706	0.000000	0.345837	0.231213	1.576268	0.642254	0.307513	1.674785	0.568175	0.562171	1.674785	0.395257	0.562171	1.379235	0.321144	0.471489	1.280718	0.197611	0.358149	1.182201	2.470279	2.615525	8.766731	0.000000	0.000000	27.315478	2.519746	1.590477	-3.954372	-18.024525	5.329396	48.629527	71.561221	4.816673	5.813473	-9.710589	-20.938471	9.319920	74.275824	87.834147	6.801610	15.739065
1.916667	2.176251	-4.265750	83.108002	0.204395	0.522053	0.940955	-2.435616	4.752967	4.747588	9.945454	0.173581	41.853538	11.122711	0.000000	0.407405	0.722836	0.234131	17.161283	0.299521	44.109153	-10.858800	0.000000	0.363343	0.207293	1.658283	0.674764	0.275700	1.761925	0.596936	0.504013	1.761925	0.415265	0.504013	1.450997	0.337400	0.422713	1.347355	0.207614	0.321097	1.243712	2.595323	2.344944	9.222871	0.000000	0.000000	27.778382	2.130196	1.783137	-4.250243	-17.852581	2.955806	48.646668	71.332453	5.183618	7.441176	-9.986102	-21.005079	8.576268	74.212144	87.663839	5.612682	13.309582
1.933333	2.266722	-4.330012	83.184623	0.204617	0.521982	0.940001	-2.545700	4.835544	4.348760	9.717765	0.169607	41.880006	11.626778	0.000000	0.445353	0.596393	0.276374	17.218314	0.300516	44.197599	-10.858653	0.000000	0.377172	0.185775	1.699436	0.700446	0.247081	1.805650	0.619655	0.451693	1.805650	0.431070	0.451693	1.487006	0.350242	0.378832	1.380791	0.215516	0.287766	1.274577	2.694100	2.101525	9.451751	0.000000	0.000000	28.131084	1.568007	1.820723	-4.346185	-17.762063	1.121429	48.389717	71.507656	5.433554	9.051141	-10.330319	-21.089472	7.845516	73.976653	87.541627	4.597330	10.537450
1.950000	2.376598	-4.380087	83.309734	0.204844	0.521898	0.938995	-2.638386	4.961044	4.027553	9.539708	0.166499	41.906882	11.970875	0.000000	0.437782	0.442311	0.274200	17.249651	0.301063	44.234398	-10.861736	0.000000	0.387461	0.163620	1.711651	0.719554	0.217614	1.818629	0.636560	0.397825	1.818629	0.442829	0.397825	1.497695	0.359796	0.333653	1.390716	0.221395	0.253447	1.283738	2.767595	1.850899	9.519689	0.000000	0.000000	28.379985	0.938435	1.685022	-4.271540	-17.758356	-0.105172	47.907016	71.957351	5.404663	10.677602	-10.812170	-21.124246	6.892564	73.664772	87.455477	3.988268	7.799957
1.966667	2.503524	-4.410473	83.471504	0.205091	0.521811	0.937946	-2.716578	5.117677	3.699954	9.410960	0.164252	41.958250	12.301079	0.000000	0.385034	0.266182	0.249546	17.260354	0.301250	44.221903	-10.892385	0.000000	0.393848	0.141238	1.702375	0.731416	0.187846	1.808774	0.647054	0.343405	1.808774	0.450129	0.343405	1.489578	0.365728	0.288012	1.383180	0.225045	0.218777	1.276781	2.813220	1.597708	9.468100	0.000000	0.000000	28.498624	0.234990	1.352074	-4.073222	-17.786296	-0.983881	47.196452	72.965293	5.198028	12.233287	-11.408521	-21.145148	5.819573	73.333526	87.376926	3.664355	5.100485
1.983333	2.639162	-4.408291	83.653862	0.205385	0.521704	0.936847	-2.804195	5.312099	3.597955	9.320901	0.162680	42.002525	12.375195	0.000000	0.278188	0.076883	0.187071	17.258767	0.301222	44.163697	-10.947993	0.000000	0.395309	0.117495	1.673387	0.734129	0.156268	1.777973	0.649454	0.285677	1.777973	0.451799	0.285677	1.464213	0.367084	0.239595	1.359627	0.225880	0.181999	1.255040	2.823656	1.329125	9.306875	0.000000	0.000000	28.464395	-0.496447	0.794149	-3.729414	-17.948921	-1.079896	46.292098	73.923889	4.597261	13.466979	-12.132792	-21.147126	4.562367	73.093122	87.289811	3.725443	2.669694
2.000000	2.781757	-4.381186	83.813652	0.205748	0.521563	0.935697	-2.886305	5.533270	3.701477	9.290788	0.162155	42.052440	12.267373	0.000000	0.114961	-0.122222	0.042682	17.231426	0.300745	44.058307	-11.016378	0.000000	0.394046	0.093887	1.641258	0.731784	0.124870	1.743837	0.647379	0.228277	1.743837	0.450356	0.228277	1.436101	0.365911	0.191454	1.333522	0.225158	0.145431	1.230944	2.814634	1.062068	9.128186	0.000000	0.000000	28.288268	-1.219108	0.079488	-3.346568	-18.164321	-0.775502	45.224312	74.780557	3.848325	14.303617	-12.954326	-21.152553	3.258275	72.993124	87.206317	3.713289	0.423453
